<mxfile host="65bd71144e">
    <diagram id="VyqQpMcPUmYa-1CBkMry" name="Page-1">
        <mxGraphModel dx="1130" dy="780" grid="1" gridSize="10" guides="1" tooltips="1" connect="1" arrows="1" fold="1" page="1" pageScale="1" pageWidth="1169" pageHeight="827" math="0" shadow="0">
            <root>
                <mxCell id="0"/>
                <mxCell id="1" parent="0"/>
                <mxCell id="2" value="&lt;h1&gt;&lt;font style=&quot;font-size: 29px;&quot;&gt;FreeRTOS tasks usage&lt;/font&gt;&lt;/h1&gt;&lt;p&gt;&lt;font style=&quot;font-size: 16px;&quot;&gt;This sheet shows what particular RTOS tasks are meant to do and their assigned priority. This is most high-level design, implementation details are described in separate sheets dedicated to particular tasks.&lt;/font&gt;&lt;/p&gt;" style="text;html=1;strokeColor=#82b366;fillColor=#d5e8d4;spacing=5;spacingTop=-20;whiteSpace=wrap;overflow=hidden;rounded=0;labelBackgroundColor=none;fontColor=#0f0f0f;labelBorderColor=none;" parent="1" vertex="1">
                    <mxGeometry x="10" y="10" width="340" height="155" as="geometry"/>
                </mxCell>
                <mxCell id="5" value="Idle task" style="swimlane;whiteSpace=wrap;html=1;fontSize=15;fillColor=#1ba1e2;strokeColor=#006EAF;fontColor=#ffffff;" parent="1" vertex="1">
                    <mxGeometry x="410" y="20" width="280" height="370" as="geometry"/>
                </mxCell>
                <mxCell id="17" value="&lt;font&gt;&lt;i style=&quot;font-size: 18px; font-weight: bold;&quot;&gt;Purpose: &lt;/i&gt;&lt;/font&gt;This task's main purpose is to clear unused memory(by default) and put MPU to sleep mode between computation cycles&amp;nbsp;" style="rounded=0;whiteSpace=wrap;html=1;labelBackgroundColor=none;labelBorderColor=none;fontSize=15;fillColor=#cce5ff;fillStyle=auto;strokeColor=#36393d;fontColor=#080808;" parent="5" vertex="1">
                    <mxGeometry x="10" y="40" width="260" height="100" as="geometry"/>
                </mxCell>
                <mxCell id="18" value="&lt;font&gt;&lt;i style=&quot;font-size: 18px; font-weight: bold;&quot;&gt;Priority: &lt;/i&gt;&lt;/font&gt;Lowest possible priority has been choosen by default.&amp;nbsp;&lt;br&gt;&lt;i style=&quot;font-size: 18px; font-weight: bold;&quot;&gt;Reasoning: &lt;/i&gt;Idle task should not interfere with higher priority tasks.&amp;nbsp;" style="rounded=0;whiteSpace=wrap;html=1;labelBackgroundColor=none;labelBorderColor=none;fontSize=15;fillColor=#ffff88;fillStyle=auto;strokeColor=#36393d;fontColor=#0d0d0d;" parent="5" vertex="1">
                    <mxGeometry x="10" y="150" width="260" height="100" as="geometry"/>
                </mxCell>
                <mxCell id="19" value="&lt;font color=&quot;#0d0c0c&quot;&gt;&lt;font&gt;&lt;i style=&quot;font-size: 18px; font-weight: bold;&quot;&gt;Dependencies: &lt;/i&gt;&lt;/font&gt;This task runs independently from others&lt;/font&gt;" style="rounded=0;whiteSpace=wrap;html=1;labelBackgroundColor=none;labelBorderColor=none;fontSize=15;fillColor=#cdeb8b;fillStyle=auto;strokeColor=#36393d;" parent="5" vertex="1">
                    <mxGeometry x="10" y="260" width="260" height="100" as="geometry"/>
                </mxCell>
                <mxCell id="7" value="&lt;font color=&quot;#121212&quot;&gt;Task priority colloring&lt;/font&gt;" style="swimlane;whiteSpace=wrap;html=1;fontSize=15;fillColor=#d5e8d4;strokeColor=#82b366;" parent="1" vertex="1">
                    <mxGeometry x="65" y="219" width="230" height="390" as="geometry"/>
                </mxCell>
                <mxCell id="10" value="&lt;font style=&quot;font-size: 20px;&quot;&gt;Idle&lt;/font&gt;" style="rounded=1;whiteSpace=wrap;html=1;fillColor=#1ba1e2;fontColor=#ffffff;strokeColor=#006EAF;" parent="7" vertex="1">
                    <mxGeometry x="20" y="30" width="190" height="40" as="geometry"/>
                </mxCell>
                <mxCell id="11" value="&lt;font style=&quot;font-size: 20px;&quot;&gt;Very Low&lt;/font&gt;" style="rounded=1;whiteSpace=wrap;html=1;fillColor=#0050ef;fontColor=#ffffff;strokeColor=#001DBC;" parent="7" vertex="1">
                    <mxGeometry x="20" y="80" width="190" height="40" as="geometry"/>
                </mxCell>
                <mxCell id="12" value="&lt;font style=&quot;font-size: 20px;&quot;&gt;Low&lt;/font&gt;" style="rounded=1;whiteSpace=wrap;html=1;fillColor=#60a917;fontColor=#ffffff;strokeColor=#2D7600;" parent="7" vertex="1">
                    <mxGeometry x="20" y="130" width="190" height="40" as="geometry"/>
                </mxCell>
                <mxCell id="13" value="&lt;font style=&quot;font-size: 20px;&quot;&gt;Medium&lt;/font&gt;" style="rounded=1;whiteSpace=wrap;html=1;fillColor=#e3c800;fontColor=#000000;strokeColor=#B09500;" parent="7" vertex="1">
                    <mxGeometry x="20" y="180" width="190" height="40" as="geometry"/>
                </mxCell>
                <mxCell id="14" value="&lt;font style=&quot;font-size: 20px;&quot;&gt;High&lt;/font&gt;" style="rounded=1;whiteSpace=wrap;html=1;fillColor=#fa6800;fontColor=#000000;strokeColor=#C73500;" parent="7" vertex="1">
                    <mxGeometry x="20" y="230" width="190" height="40" as="geometry"/>
                </mxCell>
                <mxCell id="15" value="&lt;font style=&quot;font-size: 20px;&quot;&gt;Very High&lt;/font&gt;" style="rounded=1;whiteSpace=wrap;html=1;fillColor=#e51400;fontColor=#ffffff;strokeColor=#B20000;" parent="7" vertex="1">
                    <mxGeometry x="20" y="280" width="190" height="40" as="geometry"/>
                </mxCell>
                <mxCell id="16" value="&lt;font style=&quot;font-size: 20px;&quot;&gt;Real time&lt;/font&gt;" style="rounded=1;whiteSpace=wrap;html=1;fillColor=#4902ac;fontColor=#ffffff;strokeColor=#3700CC;" parent="7" vertex="1">
                    <mxGeometry x="20" y="330" width="190" height="40" as="geometry"/>
                </mxCell>
                <mxCell id="20" value="" style="endArrow=none;dashed=1;html=1;fontSize=18;fontColor=#0d0c0c;strokeWidth=5;fillColor=#f0a30a;strokeColor=#BD7000;" parent="1" edge="1">
                    <mxGeometry width="50" height="50" relative="1" as="geometry">
                        <mxPoint x="380" y="822" as="sourcePoint"/>
                        <mxPoint x="380" y="10" as="targetPoint"/>
                    </mxGeometry>
                </mxCell>
                <mxCell id="21" value="RF interface task" style="swimlane;whiteSpace=wrap;html=1;fontSize=15;fillColor=#0050ef;strokeColor=#006EAF;fontColor=#ffffff;" parent="1" vertex="1">
                    <mxGeometry x="720" y="20" width="280" height="400" as="geometry"/>
                </mxCell>
                <mxCell id="22" value="&lt;font&gt;&lt;i style=&quot;font-size: 18px; font-weight: bold;&quot;&gt;Purpose: &lt;/i&gt;&lt;/font&gt;This task is responsible for handling CC110 chip (requests, data log, device states, communication requests from other tasks).&amp;nbsp;" style="rounded=0;whiteSpace=wrap;html=1;labelBackgroundColor=none;labelBorderColor=none;fontSize=15;fillColor=#cce5ff;fillStyle=auto;strokeColor=#36393d;fontColor=#080808;" parent="21" vertex="1">
                    <mxGeometry x="10" y="40" width="260" height="100" as="geometry"/>
                </mxCell>
                <mxCell id="23" value="&lt;font&gt;&lt;i style=&quot;font-size: 18px; font-weight: bold;&quot;&gt;Priority: &lt;/i&gt;&lt;/font&gt;Lowest possible, just before idle task.&amp;nbsp;&lt;br&gt;&lt;i style=&quot;font-size: 18px; font-weight: bold;&quot;&gt;Reasoning: &lt;/i&gt;Continuos stream of data or fast response isn't necessary in this case. Data integrity and correctness if favored.&amp;nbsp;" style="rounded=0;whiteSpace=wrap;html=1;labelBackgroundColor=none;labelBorderColor=none;fontSize=15;fillColor=#ffff88;fillStyle=auto;strokeColor=#36393d;fontColor=#0d0d0d;" parent="21" vertex="1">
                    <mxGeometry x="10" y="150" width="260" height="130" as="geometry"/>
                </mxCell>
                <mxCell id="24" value="&lt;font color=&quot;#0d0c0c&quot;&gt;&lt;font&gt;&lt;i style=&quot;font-size: 18px; font-weight: bold;&quot;&gt;Dependencies: &lt;/i&gt;&lt;/font&gt;This task responds to RF Send/Recv notifications from other tasks and handles SPI interrupts from CC110.&lt;/font&gt;" style="rounded=0;whiteSpace=wrap;html=1;labelBackgroundColor=none;labelBorderColor=none;fontSize=15;fillColor=#cdeb8b;fillStyle=auto;strokeColor=#36393d;" parent="21" vertex="1">
                    <mxGeometry x="10" y="290" width="260" height="100" as="geometry"/>
                </mxCell>
                <mxCell id="25" value="USB debug task" style="swimlane;whiteSpace=wrap;html=1;fontSize=15;fillColor=#e3c800;strokeColor=#006EAF;fontColor=#ffffff;" parent="1" vertex="1">
                    <mxGeometry x="410" y="410" width="280" height="400" as="geometry"/>
                </mxCell>
                <mxCell id="26" value="&lt;font&gt;&lt;i style=&quot;font-size: 18px; font-weight: bold;&quot;&gt;Purpose: &lt;/i&gt;&lt;/font&gt;This task handles serial CLI for debug purposes. Should be in SUSPENDED state when application is running without serial IF attached. Also this task should be able to take control over any other task, suspend or resume them." style="rounded=0;whiteSpace=wrap;html=1;labelBackgroundColor=none;labelBorderColor=none;fontSize=15;fillColor=#cce5ff;fillStyle=auto;strokeColor=#36393d;fontColor=#080808;" parent="25" vertex="1">
                    <mxGeometry x="10" y="40" width="260" height="140" as="geometry"/>
                </mxCell>
                <mxCell id="27" value="&lt;font&gt;&lt;i style=&quot;font-size: 18px; font-weight: bold;&quot;&gt;Priority: &lt;/i&gt;&lt;/font&gt;Medium or Low.&amp;nbsp;&lt;br&gt;&lt;i style=&quot;font-size: 18px; font-weight: bold;&quot;&gt;Reasoning: &lt;/i&gt;Debug task should be run frequently, to be able to verify other systems as they are running, but shouldn't interrupt RT critical tasks.&amp;nbsp;" style="rounded=0;whiteSpace=wrap;html=1;labelBackgroundColor=none;labelBorderColor=none;fontSize=15;fillColor=#ffff88;fillStyle=auto;strokeColor=#36393d;fontColor=#0d0d0d;" parent="25" vertex="1">
                    <mxGeometry x="10" y="190" width="260" height="120" as="geometry"/>
                </mxCell>
                <mxCell id="28" value="&lt;font color=&quot;#0d0c0c&quot;&gt;&lt;font&gt;&lt;i style=&quot;font-size: 18px; font-weight: bold;&quot;&gt;Dependencies: &lt;/i&gt;&lt;/font&gt;This task handles R/W requests from USART1.&lt;/font&gt;" style="rounded=0;whiteSpace=wrap;html=1;labelBackgroundColor=none;labelBorderColor=none;fontSize=15;fillColor=#cdeb8b;fillStyle=auto;strokeColor=#36393d;" parent="25" vertex="1">
                    <mxGeometry x="10" y="320" width="260" height="70" as="geometry"/>
                </mxCell>
                <mxCell id="30" value="Data gather task" style="swimlane;whiteSpace=wrap;html=1;fontSize=15;fillColor=#4902ac;strokeColor=#006EAF;fontColor=#ffffff;" parent="1" vertex="1">
                    <mxGeometry x="720" y="440" width="280" height="380" as="geometry"/>
                </mxCell>
                <mxCell id="31" value="&lt;font&gt;&lt;i style=&quot;font-size: 18px; font-weight: bold;&quot;&gt;Purpose: &lt;/i&gt;&lt;/font&gt;This task is responsible for processing data from all sensors anemometer and making DataLog entries." style="rounded=0;whiteSpace=wrap;html=1;labelBackgroundColor=none;labelBorderColor=none;fontSize=15;fillColor=#cce5ff;fillStyle=auto;strokeColor=#36393d;fontColor=#080808;" parent="30" vertex="1">
                    <mxGeometry x="10" y="40" width="260" height="100" as="geometry"/>
                </mxCell>
                <mxCell id="32" value="&lt;font&gt;&lt;i style=&quot;font-size: 18px; font-weight: bold;&quot;&gt;Priority: &lt;/i&gt;&lt;/font&gt;Real time.&amp;nbsp;&lt;br&gt;&lt;i style=&quot;font-size: 18px; font-weight: bold;&quot;&gt;Reasoning: &lt;/i&gt;Consistent data gathering requires this task to be run always exactly within the same time interval in periodical manner&amp;nbsp;" style="rounded=0;whiteSpace=wrap;html=1;labelBackgroundColor=none;labelBorderColor=none;fontSize=15;fillColor=#ffff88;fillStyle=auto;strokeColor=#36393d;fontColor=#0d0d0d;" parent="30" vertex="1">
                    <mxGeometry x="10" y="150" width="260" height="110" as="geometry"/>
                </mxCell>
                <mxCell id="33" value="&lt;font color=&quot;#0d0c0c&quot;&gt;&lt;font&gt;&lt;i style=&quot;font-size: 18px; font-weight: bold;&quot;&gt;Dependencies: &lt;/i&gt;&lt;/font&gt;This task relies on TIM16, which measures period of anemometer signal and reads sensors through I2C.&lt;/font&gt;" style="rounded=0;whiteSpace=wrap;html=1;labelBackgroundColor=none;labelBorderColor=none;fontSize=15;fillColor=#cdeb8b;fillStyle=auto;strokeColor=#36393d;" parent="30" vertex="1">
                    <mxGeometry x="10" y="270" width="260" height="100" as="geometry"/>
                </mxCell>
                <mxCell id="34" value="User HW interface task" style="swimlane;whiteSpace=wrap;html=1;fontSize=15;fillColor=#60a917;strokeColor=#006EAF;fontColor=#ffffff;" vertex="1" parent="1">
                    <mxGeometry x="1030" y="20" width="280" height="380" as="geometry"/>
                </mxCell>
                <mxCell id="35" value="&lt;font&gt;&lt;i style=&quot;font-size: 18px; font-weight: bold;&quot;&gt;Purpose: &lt;/i&gt;&lt;/font&gt;This task responds to user input through buttons on PCB. Also, this task should include handler for user interface on OLED display." style="rounded=0;whiteSpace=wrap;html=1;labelBackgroundColor=none;labelBorderColor=none;fontSize=15;fillColor=#cce5ff;fillStyle=auto;strokeColor=#36393d;fontColor=#080808;" vertex="1" parent="34">
                    <mxGeometry x="10" y="40" width="260" height="100" as="geometry"/>
                </mxCell>
                <mxCell id="36" value="&lt;font&gt;&lt;i style=&quot;font-size: 18px; font-weight: bold;&quot;&gt;Priority: &lt;/i&gt;&lt;/font&gt;Low.&lt;br&gt;&lt;i style=&quot;font-size: 18px; font-weight: bold;&quot;&gt;Reasoning: &lt;/i&gt;User input may be relatively slow in comparison to other tasks and still be considered responsive." style="rounded=0;whiteSpace=wrap;html=1;labelBackgroundColor=none;labelBorderColor=none;fontSize=15;fillColor=#ffff88;fillStyle=auto;strokeColor=#36393d;fontColor=#0d0d0d;" vertex="1" parent="34">
                    <mxGeometry x="10" y="150" width="260" height="110" as="geometry"/>
                </mxCell>
                <mxCell id="37" value="&lt;font color=&quot;#0d0c0c&quot;&gt;&lt;font&gt;&lt;i style=&quot;font-size: 18px; font-weight: bold;&quot;&gt;Dependencies: &lt;/i&gt;&lt;/font&gt;This task&amp;nbsp; controlls OLED display driver task and can also put display to sleep or suspend their task.&amp;nbsp;&lt;/font&gt;" style="rounded=0;whiteSpace=wrap;html=1;labelBackgroundColor=none;labelBorderColor=none;fontSize=15;fillColor=#cdeb8b;fillStyle=auto;strokeColor=#36393d;" vertex="1" parent="34">
                    <mxGeometry x="10" y="270" width="260" height="100" as="geometry"/>
                </mxCell>
                <mxCell id="38" value="OLED handler task" style="swimlane;whiteSpace=wrap;html=1;fontSize=15;fillColor=#0050ef;strokeColor=#0050ef;fontColor=#ffffff;" vertex="1" parent="1">
                    <mxGeometry x="1030" y="420" width="280" height="400" as="geometry"/>
                </mxCell>
                <mxCell id="39" value="&lt;font&gt;&lt;i style=&quot;font-size: 18px; font-weight: bold;&quot;&gt;Purpose: &lt;/i&gt;&lt;/font&gt;This task is a &quot;display server&quot;&amp;nbsp; for user IF handler and should not contain any logic related to it. This task shall have simple configuration interface for printing information and drawing simple shapes&amp;nbsp;" style="rounded=0;whiteSpace=wrap;html=1;labelBackgroundColor=none;labelBorderColor=none;fontSize=15;fillColor=#cce5ff;fillStyle=auto;strokeColor=#36393d;fontColor=#080808;" vertex="1" parent="38">
                    <mxGeometry x="10" y="40" width="260" height="130" as="geometry"/>
                </mxCell>
                <mxCell id="40" value="&lt;font&gt;&lt;i style=&quot;font-size: 18px; font-weight: bold;&quot;&gt;Priority: &lt;/i&gt;&lt;/font&gt;Very Low.&lt;br&gt;&lt;i style=&quot;font-size: 18px; font-weight: bold;&quot;&gt;Reasoning: &lt;/i&gt;OLED displays have long reaction time and shouldn't be updated too frequently." style="rounded=0;whiteSpace=wrap;html=1;labelBackgroundColor=none;labelBorderColor=none;fontSize=15;fillColor=#ffff88;fillStyle=auto;strokeColor=#36393d;fontColor=#0d0d0d;" vertex="1" parent="38">
                    <mxGeometry x="10" y="180" width="260" height="100" as="geometry"/>
                </mxCell>
                <mxCell id="41" value="&lt;font color=&quot;#0d0c0c&quot;&gt;&lt;font&gt;&lt;i style=&quot;font-size: 18px; font-weight: bold;&quot;&gt;Dependencies: &lt;/i&gt;&lt;/font&gt;This task is controled by UserHwIfTask but can also respond to UsbDebugTask requests.&amp;nbsp;&lt;/font&gt;" style="rounded=0;whiteSpace=wrap;html=1;labelBackgroundColor=none;labelBorderColor=none;fontSize=15;fillColor=#cdeb8b;fillStyle=auto;strokeColor=#36393d;" vertex="1" parent="38">
                    <mxGeometry x="10" y="290" width="260" height="100" as="geometry"/>
                </mxCell>
            </root>
        </mxGraphModel>
    </diagram>
</mxfile>